<svg viewBox="0 0 14 14" fill="none" xmlns="http://www.w3.org/2000/svg">
  <path d="M13.125 6.125C13.5917 6.125 14 6.53333 14 7V11.375C14 11.8417 13.5917 12.25 13.125 12.25H11.375C10.9083 12.25 10.5 11.8417 10.5 11.375V7C10.5 6.53333 10.9083 6.125 11.375 6.125H13.125Z"/>
  <path d="M7.875 1.75C8.34167 1.75 8.75 2.15833 8.75 2.625V11.375C8.75 11.8417 8.34167 12.25 7.875 12.25H6.125C5.65833 12.25 5.25 11.8417 5.25 11.375V2.625C5.25 2.15833 5.65833 1.75 6.125 1.75H7.875Z"/>
  <path d="M2.625 4.375C3.09167 4.375 3.5 4.78333 3.5 5.25V11.375C3.5 11.8417 3.09167 12.25 2.625 12.25H0.875C0.408333 12.25 0 11.8417 0 11.375V5.25C0 4.78333 0.408333 4.375 0.875 4.375H2.625Z"/>
</svg>