<svg width="12" height="12" viewBox="0 0 12 12" fill="none" xmlns="http://www.w3.org/2000/svg">
  <g clipPath="url(#clip0_12_33)">
      <path d="M2.79336 3.86052H0.384344C0.277428 3.86052 0.190796 3.94719 0.190796 4.05407V11.7932C0.190796 11.9001 0.277428 11.9868 0.384344 11.9868H2.79336C2.90028 11.9868 2.98691 11.9001 2.98691 11.7932V4.05407C2.98691 3.94719 2.90028 3.86052 2.79336 3.86052Z" fill="white" />
      <path d="M1.58965 0.0131989C0.71311 0.0131989 0 0.725534 0 1.60111C0 2.47707 0.71311 3.18968 1.58965 3.18968C2.4655 3.18968 3.17803 2.47703 3.17803 1.60111C3.17806 0.725534 2.4655 0.0131989 1.58965 0.0131989Z" fill="white" />
      <path d="M8.92075 3.66817C7.9532 3.66817 7.23796 4.0841 6.80414 4.55671V4.05406C6.80414 3.94719 6.71751 3.86052 6.61059 3.86052H4.30353C4.19662 3.86052 4.10999 3.94719 4.10999 4.05406V11.7932C4.10999 11.9001 4.19662 11.9868 4.30353 11.9868H6.70729C6.8142 11.9868 6.90084 11.9001 6.90084 11.7932V7.96413C6.90084 6.67382 7.25131 6.17113 8.15077 6.17113C9.13036 6.17113 9.20821 6.97699 9.20821 8.03052V11.7933C9.20821 11.9002 9.29484 11.9868 9.40175 11.9868H11.8064C11.9133 11.9868 11.9999 11.9002 11.9999 11.7933V7.54819C11.9999 5.62955 11.6341 3.66817 8.92075 3.66817Z" fill="white" />
  </g>
  <defs>
      <clipPath id="clip0_12_33">
          <rect width="12" height="12" fill="white" />
      </clipPath>
  </defs>
</svg>